<svg width="211" height="146" viewBox="0 0 211 146" fill="none" xmlns="http://www.w3.org/2000/svg">
<path d="M0 5C0 2.23857 2.23858 0 5 0H203.101C206.771 0 209.191 3.8221 207.621 7.13923L143.244 143.139C142.417 144.886 140.657 146 138.725 146H5C2.23858 146 0 143.761 0 141V5Z" fill="#E8342B"/>
<mask id="mask0_2_344" style="mask-type:alpha" maskUnits="userSpaceOnUse" x="0" y="0" width="209" height="146">
<path d="M0 5C0 2.23857 2.23858 0 5 0H203.101C206.771 0 209.191 3.8221 207.621 7.13923L143.244 143.139C142.417 144.886 140.657 146 138.725 146H5C2.23858 146 0 143.761 0 141V5Z" fill="#E8342B"/>
</mask>
<g mask="url(#mask0_2_344)">
<g opacity="0.6">
<g opacity="0.2">
<path d="M56.517 46.6036L38.1064 70.0056L-24.0435 -9H12.7721L56.517 46.6036Z" fill="white"/>
<path d="M137.066 -9L74.9163 70.0056L56.5169 46.6036L100.256 -9H137.066Z" fill="white"/>
</g>
<g opacity="0.2">
<path d="M137.066 149H100.256L56.517 93.402L12.7721 149H-24.0435L38.1064 70.0057L56.517 46.6037L74.9163 70.0057L137.066 149Z" fill="white"/>
<path d="M56.517 46.6036L38.1064 70.0056L-24.0435 -9H12.7721L56.517 46.6036Z" fill="white"/>
<path d="M137.066 -9L74.9163 70.0056L56.5169 46.6036L100.256 -9H137.066Z" fill="white"/>
<path d="M193.035 144.778H156.225L112.486 89.1805L68.7411 144.778H31.9255L94.0754 65.7841L112.486 42.3821L130.885 65.7841L193.035 144.778Z" fill="white"/>
</g>
</g>
</g>
</svg>
