<svg width="276" height="147" viewBox="0 0 276 147" fill="none" xmlns="http://www.w3.org/2000/svg">
<path fill-rule="evenodd" clip-rule="evenodd" d="M245.272 101.2C245.272 45.4678 200.092 0.287987 144.36 0.287987C88.6278 0.287987 39.1791 45.5629 43.448 101.2C48.536 167.513 245.272 154.882 245.272 101.2Z" fill="#E8342B"/>
<path d="M64.6979 99.923C65.0279 99.8933 65.4588 99.9275 65.5524 100.245C65.5552 100.629 65.0694 100.788 64.6889 100.835C62.6378 101.09 60.5867 101.346 58.5356 101.601C59.4891 102.41 59.5837 104.015 58.7771 104.971C57.9705 105.927 56.4289 106.123 55.3734 105.452C55.0213 105.228 54.7214 104.925 54.3513 104.733C53.9812 104.54 53.4922 104.483 53.1717 104.75C52.4472 105.353 51.3547 105.191 50.4878 104.82C49.6285 104.453 48.7806 103.826 48.5805 102.913C48.3823 102.009 48.8764 101.097 49.4606 100.379C50.0447 99.6603 50.7504 99.0097 51.1014 98.1528C51.6162 96.8957 53.1365 96.2699 54.4832 96.4477C55.8298 96.6255 57.009 97.4452 57.9898 98.385C58.6213 98.9901 59.6458 98.7527 60.4806 98.4917C61.3155 98.2307 62.3638 98.038 62.9486 98.6884" fill="white"/>
<path fill-rule="evenodd" clip-rule="evenodd" d="M183.116 96.3932C183.116 86.9819 190.072 84.8132 194.486 84.9241C198.9 85.0349 203.111 87.8767 204.749 91.8403C206.387 95.8039 205.366 100.662 202.266 103.701C199.165 106.739 192.619 106.776 190.732 106.204C188.845 105.631 183.116 101.646 183.116 96.3932Z" fill="white"/>
<path fill-rule="evenodd" clip-rule="evenodd" d="M201.01 89.9111C204.746 89.612 208.584 90.975 211.295 93.5632C215.495 97.5737 216.579 104.472 213.813 109.578C211.046 114.684 204.675 117.542 199.021 116.214C193.637 114.948 189.325 110.016 188.789 104.511C188.253 99.0066 191.533 93.3356 196.572 91.0556C197.971 90.4227 199.48 90.0336 201.01 89.9111M207.493 92.4923C206.171 91.5205 204.718 90.7072 203.146 90.3933C201.358 90.0364 199.484 90.3495 197.807 91.1089C193.544 93.0391 190.637 98.0393 190.915 103.026C191.193 108.012 194.656 112.614 199.126 113.886C203.596 115.158 208.728 112.976 211.167 108.733C213.607 104.49 213.132 98.525 210.031 94.8205C209.285 93.9291 208.413 93.1684 207.493 92.4923V92.4923Z" fill="#00160A"/>
<path fill-rule="evenodd" clip-rule="evenodd" d="M87.9396 97.0668C87.9003 96.4536 87.905 95.8342 88.0134 95.2294C88.0956 94.7707 88.2364 94.3249 88.3769 93.8807C88.6799 92.9227 88.9838 91.9621 89.399 91.0472C91.4341 86.5624 96.2992 83.5247 101.222 83.6526C106.146 83.7804 110.842 87.0595 112.669 91.6329C114.497 96.2063 113.358 101.811 109.9 105.318C106.441 108.824 100.861 110.042 96.2522 108.306C91.6433 106.57 88.2552 101.982 87.9396 97.0668" fill="white"/>
<path fill-rule="evenodd" clip-rule="evenodd" d="M101.147 41.6572C101.172 43.6041 100.674 45.686 101.575 47.4122C103.243 50.61 107.929 50.0157 111.375 48.9525C108.543 45.7285 105.71 42.5046 102.877 39.2807C108.745 33.2892 114.614 27.2976 120.482 21.3061C120.971 20.8065 121.536 20.2727 122.235 20.2591C123.041 20.2434 123.672 20.9178 124.188 21.5372C126.11 23.8427 128.032 26.1483 129.954 28.4538C131.538 30.3534 133.046 33.43 131.108 34.9658C138.38 34.4724 145.652 33.9789 152.924 33.4854C151.562 25.7075 154.064 16.1338 156.535 8.63397C156.781 7.88643 157.079 7.07343 157.762 6.68234C158.24 6.40839 158.819 6.39742 159.371 6.39362C172.648 6.30205 185.925 6.21049 199.202 6.11893C200.006 6.11338 200.855 6.11901 201.55 6.52384C202.146 6.87122 202.548 7.46692 202.924 8.0454C214.157 25.3138 221.169 47.0017 223.186 67.5029C223.439 70.0745 226.734 88.49 223.186 89.0362C206.287 91.6375 209.599 76.322 191.752 78.5625C177.088 80.4034 179.859 89.0362 171.383 90.7184C163.77 92.2294 137.801 92.6049 129.384 93.0265C117.836 93.6049 117.02 76.1474 99.4336 76.8567C81.8476 77.566 82.2502 97.5339 72.7762 95.2481C72.3812 95.1528 68.0918 92.6579 67.9951 92.3591C66.599 88.0444 65.5522 72.2521 65.5522 72.2521L62.2451 71.5176C62.2451 71.5176 62.0021 63.365 62.2451 63.1047C62.6732 62.6459 70.1699 63.4689 73.4144 63.1047C72.4558 56.4485 71.4973 49.7923 70.5388 43.1362C70.456 42.5614 70.3845 41.9298 70.6969 41.4403C71.0442 40.8961 71.7417 40.7159 72.3736 40.5839C80.8284 38.8174 89.432 37.7636 98.0631 37.4371C100.009 37.3635 101.121 39.7103 101.147 41.6572Z" fill="white"/>
<path fill-rule="evenodd" clip-rule="evenodd" d="M84.0855 59.8169L80.2794 60.088L78.1401 39.4978L81.4728 38.9499L84.0855 59.8169Z" fill="#FFB61D"/>
<path fill-rule="evenodd" clip-rule="evenodd" d="M173.969 20.5999C175 20.4017 194.772 34.1233 194.568 34.346C194.363 34.5686 173.561 20.6783 173.969 20.5999Z" fill="#E7EAEE"/>
<path fill-rule="evenodd" clip-rule="evenodd" d="M182.449 20.5999C183.249 20.4575 193.383 27.3092 193.101 27.7083C192.819 28.1074 181.938 20.6909 182.449 20.5999Z" fill="#E7EAEE"/>
<path fill-rule="evenodd" clip-rule="evenodd" d="M171.849 24.8399C171.465 24.1608 182.806 32.0079 182.501 31.9483C179.579 31.3771 171.962 25.0393 171.849 24.8399Z" fill="#E7EAEE"/>
<path fill-rule="evenodd" clip-rule="evenodd" d="M170.509 46.978C170.758 47.1745 170.656 47.6211 170.375 47.7681C170.094 47.9152 169.737 47.817 169.488 47.62C168.74 47.0269 168.895 45.7697 169.55 45.0752C170.205 44.3807 171.177 44.104 172.099 43.8563C172.482 43.7535 172.864 43.6508 173.247 43.548C174.027 43.3383 174.857 43.1287 175.631 43.3607C176.405 43.5926 177.05 44.4509 176.75 45.2011C176.561 45.673 176.061 45.9587 175.56 46.0491C175.06 46.1394 174.547 46.0708 174.04 46.0362C173.043 45.9683 172.038 46.0336 171.058 46.2298C170.866 46.2683 170.664 46.3178 170.526 46.4574C170.389 46.5971 170.355 46.8565 170.509 46.978Z" fill="#00160A"/>
<path fill-rule="evenodd" clip-rule="evenodd" d="M175.526 89.7454C175.267 90.8165 175.008 91.8876 174.749 92.9587C174.67 93.2861 174.583 93.6291 174.353 93.8755C174.011 94.242 173.459 94.2943 172.959 94.323C157.218 95.2248 141.466 95.9146 125.707 96.392C124.641 96.4243 123.637 95.8166 122.938 95.0121C122.239 94.2076 121.794 93.2188 121.359 92.2457C122.048 92.0793 122.7 92.6273 123.12 93.1985C123.54 93.7698 123.909 94.444 124.561 94.722C124.99 94.9049 125.474 94.883 125.94 94.858C141.244 94.0363 156.547 93.2146 171.851 92.3928C172.402 92.3632 173.001 92.3149 173.411 91.9447C173.832 91.5638 173.933 90.953 174.18 90.4412C174.427 89.9295 175.033 89.4623 175.526 89.7454V89.7454Z" fill="#00160A"/>
<path fill-rule="evenodd" clip-rule="evenodd" d="M57.7785 98.8955C57.0344 98.1005 56.0937 97.4911 55.0641 97.1369C54.3651 96.8964 53.5642 96.781 52.9079 97.1211C52.2516 97.4613 51.8855 98.4 52.3471 98.9773C52.5901 99.2812 52.0417 99.5691 51.6617 99.6524C50.5262 99.9014 49.6693 101.16 49.9911 102.277C50.313 103.394 51.8754 103.977 52.7767 103.243C53.103 102.977 53.3217 102.589 53.6753 102.36C54.0289 102.132 54.6248 102.18 54.7335 102.587C54.9627 103.444 55.7444 104.125 56.625 104.235C57.2 104.307 57.8804 104.072 58.0586 103.521C58.3744 102.544 56.9336 101.532 57.4241 100.63C57.6715 100.175 58.27 100.077 58.7857 100.031C60.7564 99.8535 62.7272 99.6763 64.6979 99.499C65.0279 99.4693 65.4588 99.5035 65.5522 99.8214C65.5552 100.205 65.0694 100.364 64.6889 100.411C62.6378 100.666 60.5867 100.922 58.5356 101.177C59.4891 101.986 59.5837 103.591 58.7771 104.547C57.9705 105.503 56.4289 105.699 55.3734 105.028C55.0213 104.804 54.7214 104.501 54.3513 104.309C53.9812 104.116 53.4922 104.059 53.1717 104.326C52.4472 104.929 51.3547 104.767 50.4878 104.396C49.6285 104.029 48.7806 103.402 48.5805 102.489C48.3823 101.585 48.8764 100.673 49.4606 99.9548C50.0447 99.2362 50.7504 98.5857 51.1014 97.7287C51.6162 96.4717 53.1365 95.8459 54.4832 96.0237C55.8298 96.2014 57.009 97.0212 57.9898 97.9609C58.6213 98.5661 59.6458 98.3287 60.4806 98.0677C61.3155 97.8067 62.3638 97.614 62.9486 98.2644C61.7448 98.5378 60.5409 98.8111 59.3371 99.0845C58.8014 99.2061 58.1539 99.2966 57.7785 98.8955Z" fill="#E7EAEE"/>
<path fill-rule="evenodd" clip-rule="evenodd" d="M81.881 97.7299C81.8229 96.8261 81.8299 95.9133 81.9897 95.0218C82.1108 94.3458 82.3184 93.6888 82.5255 93.034C82.9719 91.6221 83.4199 90.2062 84.0318 88.8578C87.0314 82.2478 94.2018 77.7706 101.458 77.9591C108.714 78.1475 115.636 82.9804 118.329 89.721C121.022 96.4616 119.344 104.723 114.247 109.891C109.15 115.059 100.926 116.853 94.1326 114.295C87.3397 111.736 82.346 104.974 81.881 97.7299M85.6877 90.9682C85.3652 91.8257 85.1136 92.7246 85.1146 93.6408C85.1176 96.4502 85.339 99.3005 86.2926 101.943C88.2969 107.497 93.6999 111.655 99.5801 112.192C105.46 112.729 111.517 109.63 114.54 104.558C117.563 99.4858 117.413 92.6973 114.187 87.7516C110.962 82.8059 104.824 79.9335 98.9576 80.6029C93.091 81.2723 87.7661 85.4414 85.6877 90.9682H85.6877Z" fill="#00160A"/>
<path fill-rule="evenodd" clip-rule="evenodd" d="M200.516 80.5871C206.667 83.1728 210.949 89.682 210.887 96.3544C210.826 103.027 206.425 109.456 200.227 111.928C194.029 114.399 186.411 112.763 181.775 107.964C177.139 103.165 175.766 95.4959 178.45 89.3868C179.085 87.9423 179.944 86.5628 181.164 85.5624C183.929 83.295 186.793 80.9786 190.214 79.9361C193.572 78.9126 197.279 79.2266 200.516 80.5871M186.207 83.8165C185.399 84.3327 184.636 84.9357 184.039 85.6857C183.407 86.4789 182.98 87.4117 182.559 88.3342C181.928 89.7169 181.294 91.1074 180.9 92.5754C179.547 97.6199 181.377 103.368 185.379 106.724C189.381 110.08 195.342 110.885 200.102 108.736C204.862 106.588 208.197 101.604 208.397 96.3847C208.596 91.1657 205.665 85.9543 201.116 83.3884C196.567 80.8226 190.608 81.0038 186.207 83.8165Z" fill="#00160A"/>
<path fill-rule="evenodd" clip-rule="evenodd" d="M195.078 12.1041C184.409 12.3312 173.74 12.5584 163.071 12.7855C162.805 12.7912 162.51 12.8087 162.324 12.9987C162.203 13.1214 162.152 13.2944 162.106 13.4603C159.74 22.0887 161.657 31.2303 163.264 40.0316C164.266 45.5187 165.145 51.0284 165.899 56.5551C166.442 60.5349 166.921 64.5372 166.888 68.5538C166.877 69.8309 167.775 70.9853 168.893 71.6022C170.011 72.2192 171.32 72.3858 172.595 72.4477C175.283 72.5781 177.99 72.2923 180.591 71.6036C181.075 71.4754 181.577 71.332 182.07 71.4242C182.562 71.5163 183.036 71.9302 183.006 72.4303C182.972 73.0087 182.346 73.3411 181.8 73.5353C178.366 74.7569 174.596 75.0194 171.026 74.2856C169.313 73.9335 167.527 73.269 166.545 71.8218C165.987 70.9986 165.748 70.0056 165.531 69.0349C163.344 59.2674 162.252 49.2926 161.186 39.3402C160.217 30.2957 159.264 21.1804 160.077 12.1205C160.102 11.8405 160.133 11.5492 160.281 11.3106C160.6 10.7988 161.304 10.7293 161.907 10.7145C173.192 10.4374 184.477 10.1602 195.762 9.8831C196.402 9.86739 197.09 9.86506 197.618 10.227C198.007 10.4941 198.25 10.9217 198.48 11.3343C202.571 18.679 206.663 26.0237 210.754 33.3684C211.573 34.8378 212.417 36.5258 211.908 38.129C211.531 39.3179 210.454 40.1803 209.284 40.6148C208.115 41.0494 206.847 41.1203 205.601 41.1868C203.365 41.3061 201.129 41.4255 198.893 41.5448C193.37 41.8396 187.846 42.1344 182.322 42.4293C182.005 42.4462 181.651 42.4505 181.416 42.2365C181.074 41.924 181.222 41.3135 181.587 41.0282C181.952 40.743 182.442 40.6932 182.904 40.6543C191.24 39.9513 199.576 39.2483 207.912 38.5453C208.565 38.4902 209.018 37.8042 209.048 37.1493C209.077 36.4943 208.794 35.8705 208.514 35.2773C204.903 27.6027 200.992 20.0688 196.795 12.6984C196.479 12.1442 195.716 12.0905 195.078 12.1041V12.1041Z" fill="#00160A"/>
<path fill-rule="evenodd" clip-rule="evenodd" d="M94.4653 85.8012C98.1936 83.7376 103.044 83.9789 106.634 86.2754C110.223 88.5718 112.46 92.7845 112.507 97.0456C112.555 101.386 110.202 105.832 106.271 107.673C104.901 108.315 103.391 108.635 101.879 108.694C96.3691 108.909 90.8559 105.286 89.0904 100.062C87.3249 94.8381 89.6408 88.4713 94.4653 85.8012M102.975 106.827C104.424 106.585 105.831 106.069 107.063 105.269C108.326 104.45 109.397 103.337 110.166 102.044C112.168 98.6763 111.912 94.1535 109.69 90.9271C107.468 87.7007 103.449 85.8601 99.5385 86.0987C98.0809 86.1877 96.6339 86.5463 95.3309 87.2056C90.8343 89.4806 88.7695 95.4849 90.6721 100.151C92.5747 104.818 98.0046 107.656 102.975 106.827L102.975 106.827Z" fill="#00160A"/>
<path fill-rule="evenodd" clip-rule="evenodd" d="M133.464 78.2942C132.815 77.7175 131.779 77.7472 131.146 77.1525C131.325 76.5078 131.92 76.0842 132.338 75.5618C133.325 74.3271 133.222 72.3558 132.11 71.2315C131.547 70.6628 130.731 70.2273 130.583 69.4414C131.745 69.2417 132.92 68.8668 133.796 68.0761C134.671 67.2854 135.179 66.0039 134.794 64.8887C134.676 64.5463 134.478 64.2192 134.474 63.857C134.469 63.4948 134.784 63.0938 135.132 63.1932C136.998 63.7253 139.178 62.4848 139.673 60.6097C139.886 59.804 141.072 59.8835 141.816 60.2584C142.56 60.6332 143.508 61.1072 144.14 60.5646C144.676 60.1053 144.774 59.0386 145.479 59.052C145.844 59.0589 146.102 59.3915 146.357 59.6533C147.235 60.5559 148.696 60.8294 149.842 60.3056C150.242 60.1224 150.613 59.85 151.048 59.7799C151.483 59.7099 152.019 59.9546 152.046 60.3943C152.131 61.7241 153.584 62.7859 154.876 62.4628C155.37 62.3394 156.207 62.3662 156.04 62.8465C155.53 64.3126 156.621 66.1087 158.157 66.3321C158.548 66.389 158.963 66.3616 159.317 66.5376C159.671 66.7136 159.906 67.2157 159.64 67.5078C158.497 68.7625 158.979 71.0896 160.527 71.7863C160.944 71.9741 160.845 72.6251 160.53 72.9561C160.214 73.2871 159.759 73.4882 159.528 73.883C159.126 74.5695 159.604 75.4446 160.188 75.9849C160.772 76.5253 161.505 76.9793 161.779 77.726C160.68 77.3064 159.319 77.7384 158.663 78.7148C158.007 79.6911 158.122 81.1146 158.926 81.9732C158.501 82.7365 157.367 82.4326 156.497 82.5092C155.439 82.6025 154.512 83.5187 154.407 84.576C154.362 85.036 154.453 85.5185 154.289 85.9507C154.125 86.383 153.527 86.6954 153.2 86.3687C151.985 85.1534 149.659 85.3978 148.722 86.8392C148.5 87.1815 148.281 87.6195 147.874 87.6564C147.234 87.7144 147.03 86.7893 146.509 86.413C145.863 85.9466 144.946 86.4757 144.492 87.1303C144.038 87.7848 143.754 88.6027 143.086 89.0362C141.816 88.1041 142.201 85.4648 140.641 85.2492C139.967 85.156 139.374 85.6561 138.736 85.8919C138.098 86.1277 137.115 85.8126 137.234 85.1431C137.429 84.0475 137.264 82.5873 136.188 82.3032C135.126 82.0228 133.768 83.1271 133.035 82.3092C133.829 81.0689 134.565 79.2724 133.464 78.2942ZM134.172 71.4732C133.684 72.3558 133.773 73.4267 133.682 74.4309C133.591 75.435 133.169 76.5687 132.206 76.8648C133.295 76.9421 134.315 77.6639 134.749 78.6659C135.184 79.6679 135.015 80.9055 134.327 81.7541C135.22 81.0852 136.582 81.28 137.392 82.0466C138.202 82.8133 138.493 84.0229 138.328 85.126C139.246 84.4695 140.541 84.3863 141.536 84.9198C142.531 85.4533 143.178 86.5778 143.14 87.7062C143.414 86.7051 144.201 85.8301 145.205 85.5666C146.208 85.3032 147.386 85.7317 147.891 86.6384C147.938 85.9552 148.583 85.4712 149.217 85.2121C150.575 84.657 152.167 84.7054 153.489 85.342C153.328 83.2105 155.556 81.2544 157.649 81.691C156.994 81.0081 157.031 79.8963 157.395 79.0228C157.854 77.9218 158.927 76.9626 160.113 77.0889C159.425 76.8368 158.869 76.2473 158.657 75.5451C158.303 74.367 158.948 73.0526 159.952 72.3414C158.685 72.0752 158.277 70.4995 158.12 69.2143C158.038 68.5445 158.078 67.667 158.718 67.4517C157.398 67.0787 156.206 66.2667 155.377 65.1749C154.993 64.6698 154.718 63.8725 155.205 63.4665C154.194 63.414 153.196 63.1106 152.326 62.591C151.664 62.1957 151.013 61.471 151.264 60.742C149.493 61.6171 147.262 61.4782 145.613 60.3901C145.114 61.1741 144.137 61.5541 143.209 61.5507C142.28 61.5472 141.385 61.2163 140.534 60.8427C140.635 61.4574 140.22 62.0351 139.771 62.4662C138.628 63.562 137.091 64.2384 135.511 64.3411C136.214 66.758 134.341 69.579 131.84 69.8689C132.445 70.6085 133.273 71.1498 134.172 71.4732Z" fill="#00160A"/>
<path fill-rule="evenodd" clip-rule="evenodd" d="M195.615 106.109C194.031 106.325 192.399 106.171 190.884 105.663C186.079 104.052 182.939 98.5571 183.989 93.5998C185.039 88.6425 190.138 84.8934 195.183 85.3688C200.228 85.8443 204.536 90.48 204.642 95.5461C204.747 100.612 200.636 105.423 195.615 106.109M199.241 103.968C202.616 101.919 204.469 97.6356 203.65 93.773C202.832 89.9103 199.401 86.7464 195.485 86.243C191.568 85.7396 187.449 87.933 185.68 91.4631C183.911 94.9931 184.62 99.6061 187.368 102.442C190.366 105.536 195.558 106.203 199.241 103.968Z" fill="#00160A"/>
<path fill-rule="evenodd" clip-rule="evenodd" d="M146.293 61.7147C150.6 61.6655 154.833 64.2296 156.785 68.0695C158.736 71.9093 158.312 76.8404 155.733 80.2903C153.154 83.7402 148.545 85.5432 144.31 84.7587C140.569 84.0657 137.248 81.4116 135.748 77.9151C134.248 74.4186 134.612 70.1833 136.688 66.9946C138.763 63.8059 142.489 61.7582 146.293 61.7147ZM157.282 72.6298C157.174 70.9144 156.65 69.2266 155.768 67.7515C153.078 63.2538 146.843 61.285 142.057 63.4222C137.272 65.5593 134.577 71.5163 136.13 76.5216C137.684 81.5269 143.279 84.9105 148.433 83.9621C153.588 83.0137 157.612 77.8603 157.282 72.6298V72.6298Z" fill="#00160A"/>
<path fill-rule="evenodd" clip-rule="evenodd" d="M152.318 73.3639C151.505 74.3139 150.204 74.8223 148.962 74.6757C148.532 74.625 147.87 74.7322 147.985 75.149C149.453 75.665 150.921 76.181 152.389 76.697C153.202 76.9828 153.435 78.1513 152.951 78.8645C152.467 79.5778 151.511 79.8443 150.655 79.739C149.8 79.6337 149.017 79.2223 148.256 78.818C147.489 78.4104 146.721 78.0028 145.954 77.5953C146.989 77.1859 148.112 77.8141 149.094 78.3402C150.075 78.8663 151.378 79.2771 152.219 78.5483C152.347 78.4379 152.459 78.2963 152.482 78.1293C152.536 77.73 152.092 77.4641 151.719 77.3123C150.54 76.8323 149.36 76.3524 148.181 75.8725C147.586 75.6302 146.884 75.8404 146.374 76.2313C145.863 76.6222 145.501 77.1698 145.131 77.6955C144.347 78.8079 143.404 79.9259 142.097 80.3046C140.79 80.6832 139.094 79.944 138.959 78.5901C138.875 77.7391 139.409 76.9429 140.042 76.3675C140.674 75.7921 141.427 75.351 142.007 74.7221C142.08 74.6427 142.154 74.5528 142.163 74.4452C142.181 74.2209 141.929 74.0827 141.718 74.0048C140.579 73.5846 139.441 73.1645 138.302 72.7444C137.81 72.5627 138.116 71.7122 138.637 71.6491C139.158 71.586 139.615 71.9629 140.031 72.2824C141.13 73.1254 142.654 73.7162 143.88 73.0736C144.755 72.6153 145.258 71.5417 145.051 70.5763C144.769 69.2605 145.263 67.8075 146.288 66.9362C147.314 66.0649 148.828 65.8123 150.08 66.3034C149.124 66.7534 148.688 68.0594 149.182 68.9939C149.676 69.9285 151 70.3036 151.911 69.7668C152.245 69.5701 152.689 69.2797 152.958 69.5584C153.032 69.6358 153.068 69.7422 153.097 69.8459C153.433 71.0504 153.131 72.414 152.318 73.3639ZM146.175 69.7011C146.172 71.1404 146.98 72.6223 148.315 73.1598C149.65 73.6972 151.421 73.0318 151.856 71.6599C151.953 71.3546 151.787 70.8636 151.495 70.9956C150.7 71.3559 149.761 70.9393 149.089 70.3813C148.651 70.0177 148.255 69.5726 148.087 69.0285C147.92 68.4844 148.03 67.8281 148.466 67.4621C147.781 67.309 147.019 67.5954 146.605 68.1611C146.285 68.5984 146.177 69.1591 146.175 69.7011ZM140.375 78.7713C142.112 80.4891 143.146 78.2385 143.567 77.7556C144.542 76.6356 145.576 75.5667 146.662 74.5546C146.876 74.3556 146.884 74.0061 146.76 73.7418C146.636 73.4775 146.409 73.2786 146.188 73.0878C145.859 72.8037 145.329 72.8851 144.987 73.1521C144.644 73.4191 138.637 77.0536 140.375 78.7713Z" fill="#FFB61D"/>
<path fill-rule="evenodd" clip-rule="evenodd" d="M107.306 90.7591C111.042 90.46 114.88 91.823 117.591 94.4112C121.791 98.4217 122.875 105.32 120.109 110.426C117.342 115.532 110.971 118.39 105.317 117.062C99.9332 115.796 95.6206 110.864 95.0848 105.359C94.5489 99.8546 97.8293 94.1836 102.868 91.9036C104.267 91.2707 105.776 90.8816 107.306 90.7591M113.789 94.9644C112.467 94.0652 111.014 93.3126 109.442 93.0222C107.654 92.6919 105.78 92.9816 104.103 93.6843C99.8397 95.4704 96.9333 100.097 97.211 104.711C97.4886 109.325 100.952 113.584 105.422 114.761C109.892 115.938 115.024 113.919 117.463 109.992C119.903 106.066 119.428 100.547 116.327 97.1188C115.581 96.294 114.709 95.59 113.789 94.9644V94.9644Z" fill="#00160A"/>
<path fill-rule="evenodd" clip-rule="evenodd" d="M101.146 39.1132C101.172 41.0601 100.674 43.142 101.575 44.8682C103.243 48.066 107.929 47.4716 111.375 46.4084C108.543 43.1845 105.71 39.9606 102.877 36.7367C108.745 30.7452 114.614 24.7536 120.482 18.7621C120.971 18.2625 121.536 17.7287 122.235 17.715C123.041 17.6993 123.672 18.3738 124.188 18.9932C126.11 21.2987 128.032 23.6043 129.954 25.9098C131.538 27.8094 133.046 30.886 131.108 32.4218C138.38 31.9284 145.652 31.4349 152.924 30.9414C151.562 23.1635 154.064 15.2858 156.535 7.78597C156.781 7.03843 157.079 6.22542 157.762 5.83433C158.24 5.56038 158.819 5.54941 159.371 5.54561C172.648 5.45405 185.925 5.36248 199.202 5.27092C200.006 5.26538 200.855 5.271 201.55 5.67583C202.146 6.02321 202.548 6.61891 202.924 7.1974C214.157 24.4657 221.169 44.4576 223.186 64.9589C223.439 67.5305 223.715 70.3403 225.53 72.1794C228.294 74.9791 228.591 79.8578 226.188 82.9724C227.955 84.2546 227.519 87.2152 225.901 88.6808C224.283 90.1465 221.983 90.521 219.822 90.8327C216.955 91.2464 213.835 91.6156 211.328 90.1635C215.434 89.2013 219.545 88.2617 223.662 87.345C221.836 75.3207 220.01 63.2965 218.184 51.2722C217.582 47.307 216.977 43.328 215.854 39.4776C214.646 35.3315 212.852 31.3836 211.064 27.4523C208.248 21.2606 205.432 15.0689 202.616 8.87719C202.309 8.20257 201.977 7.49598 201.372 7.0679C200.639 6.54946 199.672 6.55069 198.775 6.57205C186.275 6.86959 173.776 7.16714 161.277 7.46469C160.556 7.48184 159.78 7.51817 159.213 7.96439C158.748 8.33143 158.511 8.91091 158.308 9.46777C153.386 22.9164 156.269 37.8144 159.204 51.8314C159.743 54.4065 156.245 55.7221 153.624 55.9519C123.703 58.575 93.7811 61.1982 63.8596 63.8214C63.4925 66.1937 63.389 68.6067 63.5515 71.0017C65.5429 71.1768 67.5342 71.3518 69.5256 71.5269C68.894 71.7755 68.2624 72.0241 67.6308 72.2728C68.8083 78.461 69.4591 84.7493 69.5741 91.0474C69.6091 92.9642 71.2705 94.5413 73.1004 95.1126C74.9303 95.684 76.9009 95.4715 78.8055 95.2534C76.7781 96.1022 74.6654 96.967 72.4702 96.8594C70.2749 96.7518 67.9763 95.3673 67.5711 93.2071C66.3006 86.433 65.5689 79.5579 65.3853 72.6681C64.2315 72.6962 63.0778 72.7243 61.9241 72.7524C61.534 69.8693 61.377 66.9548 61.455 64.0466C61.4718 63.4207 61.5225 62.737 61.9497 62.2792C62.3778 61.8204 63.0574 61.7235 63.6809 61.6534C66.9254 61.2892 70.1699 60.9249 73.4144 60.5606C72.4558 53.9045 71.4973 47.2483 70.5388 40.5922C70.456 40.0174 70.3845 39.3858 70.6969 38.8963C71.0442 38.3521 71.7417 38.1719 72.3736 38.0399C80.8284 36.2734 89.432 35.2196 98.0631 34.8931C100.009 34.8195 101.121 37.1663 101.146 39.1132ZM74.6385 59.8887C74.6601 60.0775 74.6925 60.2867 74.8413 60.4047C74.9861 60.5195 75.1905 60.5077 75.3744 60.4903C83.8636 59.6842 92.3528 58.8781 100.842 58.072C101.076 58.0498 101.343 58.0088 101.471 57.8112C101.571 57.6562 101.551 57.4554 101.526 57.2724C100.659 50.7587 99.7913 44.2451 98.9238 37.7314C98.9 37.5525 98.8708 37.3617 98.7498 37.2279C98.5871 37.048 98.3159 37.0293 98.0734 37.024C89.6853 36.8405 81.275 37.695 73.0953 39.5621C72.8726 39.6129 72.6289 39.6785 72.5016 39.8682C72.3823 40.0459 72.402 40.279 72.4262 40.4916C73.1637 46.9573 73.9011 53.423 74.6385 59.8887ZM153.621 33.8488C153.584 33.5468 153.521 33.202 153.259 33.0481C153.092 32.95 152.885 32.958 152.692 32.9689C145.134 33.3956 137.576 33.8223 130.018 34.249C129.851 34.2584 129.671 34.273 129.545 34.3823C129.362 34.5419 129.372 34.8251 129.398 35.0671C130.09 41.5926 130.781 48.1181 131.473 54.6435C131.495 54.849 131.525 55.0717 131.671 55.2176C131.859 55.4052 132.161 55.3937 132.426 55.3694C140.268 54.6505 148.11 53.9316 155.952 53.2126C155.175 46.758 154.398 40.3034 153.621 33.8488ZM113.022 44.8433C113.132 44.9435 113.253 45.0485 113.4 45.0659C113.61 45.0905 113.792 44.9349 113.945 44.7899C119.054 39.9342 125.011 35.9265 130.12 31.0708C130.35 30.8521 130.598 30.5926 130.587 30.2754C130.58 30.0628 130.455 29.8743 130.335 29.699C128.299 26.7359 125.286 23.0129 123.001 20.2368C122.777 19.9641 122.487 19.6652 122.137 19.7097C121.913 19.7381 121.735 19.9025 121.573 20.0588C115.929 25.4957 110.286 30.9326 104.642 36.3695C104.516 36.4905 104.382 36.6326 104.384 36.8071C104.386 36.9819 104.526 37.1204 104.655 37.238C107.444 39.7731 110.233 42.3082 113.022 44.8433ZM129.353 47.5127C129.309 47.2329 129.247 46.9223 129.016 46.7588C128.811 46.6136 128.536 46.6314 128.286 46.6552C120.473 47.3991 112.661 48.1429 104.849 48.8868C104.441 48.9256 103.962 49.011 103.784 49.3807C103.686 49.5842 103.711 49.8226 103.737 50.0469C104.001 52.2777 104.264 54.5086 104.528 56.7394C104.565 57.0539 104.625 57.4078 104.887 57.586C105.096 57.7286 105.372 57.7123 105.624 57.6904C113.704 56.9896 121.783 56.2889 129.863 55.5881C130.064 55.5706 130.289 55.5414 130.415 55.3839C130.546 55.2217 130.52 54.9886 130.488 54.7831C130.11 52.3596 129.731 49.9362 129.353 47.5127ZM127.729 35.8623C127.711 35.7269 127.648 35.5529 127.512 35.5635C127.454 35.568 127.406 35.6079 127.362 35.646C123.344 39.157 119.325 42.6681 115.306 46.1792C119.485 45.8289 123.659 45.4305 127.829 44.9843C128.187 44.9459 128.601 44.8718 128.772 44.5548C128.884 44.3479 128.855 44.0965 128.824 43.8635C128.459 41.1964 128.094 38.5293 127.729 35.8623ZM224.712 73.4569C225.097 75.6783 225.483 77.8996 225.868 80.1209C225.906 80.3413 225.984 80.6066 226.203 80.6546C226.558 80.7327 226.681 80.1988 226.632 79.8385C226.372 77.9164 226.111 75.9943 225.851 74.0721C225.804 73.7281 225.736 73.3464 225.458 73.1386C225.18 72.9308 224.653 73.1148 224.712 73.4569Z" fill="#00160A"/>
<path fill-rule="evenodd" clip-rule="evenodd" d="M33.6048 117.494C26.1806 117.611 0.649509 119.503 0.208468 118.556C-0.355776 117.344 27.4857 115.75 33.5545 115.654L35.4554 115.628C40.9734 115.569 33.6048 117.494 33.6048 117.494ZM90.3104 115.174C92.1133 115.174 93.5246 115.758 92.3109 116.184C91.0971 116.61 87.1695 117.508 80.5927 117.659C74.0159 117.81 66.3927 117.966 55.1281 118.188C54.4749 118.201 53.9349 117.682 53.9221 117.029C53.9092 116.376 54.4283 115.836 55.0815 115.823L75.0283 115.416C81.0841 115.285 84.8745 115.174 90.3104 115.174ZM180.412 114.482C181.065 114.471 181.603 114.992 181.613 115.646C181.623 116.299 181.102 116.837 180.449 116.847L177.677 116.881L169.196 116.94C167.489 116.957 98.4363 117.398 97.5 116.386C96.5638 115.373 98.0005 115.19 98.6536 115.174C98.6536 115.174 169.173 114.572 171.018 114.558L178.07 114.511C178.89 114.503 179.632 114.494 180.412 114.482ZM257.076 112.206C257.076 112.206 259.199 111.839 274.705 113C275.357 113.049 275.845 113.617 275.797 114.268C275.748 114.92 268.08 114.591 257.598 114.572L254.715 114.577C247.018 114.611 239.868 114.819 228.001 115.308L213.022 115.94C206.63 116.202 202.817 116.33 198.18 116.439C197.527 116.455 196.985 115.938 196.969 115.285C196.954 114.631 197.471 114.089 198.124 114.074L201.848 113.977C206.277 113.849 210.829 113.67 218.9 113.326L227.457 112.962C240.838 112.409 248.279 112.206 257.076 112.206Z" fill="#00160A"/>
</svg>
